<svg xmlns="http://www.w3.org/2000/svg" width="501" height="383.6" viewBox="0 0 501 383.6"><title>Asset 8-7</title><g id="Layer_2" data-name="Layer 2"><g id="Layer_1-2" data-name="Layer 1"><path d="M64.6,116.4c.3,10.6.1,26.3-.3,47-.2,5-.1,12.2.5,21.7s.8,15,.8,16.6c.9,33.1.9,56.3,0,69.3s-4,24.4-8.8,33.9-12,13.5-24,15.5c-4,.7-8.8-.9-14.2-4.7,11.5-5,18.3-15.3,20.3-31.1a195.5,195.5,0,0,0,.7-28.5c-.5-8.5-.5-21.6,0-39.2q0-18,.3-26.7V166.5l-1-52.5c0-.2.2-1.4.7-3.7q9.8-1.3,24,0C64.3,111.2,64.6,113.2,64.6,116.4Zm-3-44.7c-5.7,1.2-11,0-16.1-3.3s-7.7-7.8-7.9-13.2,1.7-9.5,5.9-13.4,9.6-6,16.4-6.3C54,49.5,54.6,61.6,61.6,71.7Z" transform="translate(-18.6 -35.5)"/><path d="M224.3,112c-.6,1.1-2.4,2.4-5.4,3.7-16.2,9.7-26.3,26.2-30.1,49.4a110.1,110.1,0,0,0,3.7,49.4c6.1,19.4,16.9,33.9,32.5,43.3l2,1.1q-26,2-45.3-16c-6.1-5.6-12.3-14.3-18.6-26-1.4-2.3-1.9-4.2-1.7-5.8a17.1,17.1,0,0,1-1.9-5.9,21.2,21.2,0,0,0-.8-4.2c-2-5.4-2.2-13.2-.3-23.4,2.7-13.5,4.7-21.7,6-24.7q9.9-23.6,33.9-34.1l6.6-2.7q4.5-2.1,7.8-3.3a20.8,20.8,0,0,1,6.6-1.1C221.5,111.2,223.2,111.3,224.3,112Zm94.8,35.5c7.9,13.6,10.8,31,8.8,52.5-.9,11.7-5.6,23.2-13.9,34.5s-20.8,19.4-36.5,23.7a12.8,12.8,0,0,1-8.2,0,18.7,18.7,0,0,1,3.1-2.4c8.6-3.8,15-11.4,19.3-22.7q13.5-35.4,7.1-71c-2.1-13.6-7.5-27.8-16.3-42.7Q304.8,124.2,319.1,147.5Z" transform="translate(-18.6 -35.5)"/><path d="M450.7,175.1c14.2,31,25.8,54.8,34.9,71.2a21.9,21.9,0,0,1-1.9,5.1c-1,2-1.6,3.4-1.9,4.1a20.2,20.2,0,0,0-3.2,6.9,47,47,0,0,1-3.2,8.1c-1.1,2.2-2.5,3.4-4,3.6-5.7-8.1-18.9-34.5-39.6-79s-32.5-71.6-35.2-81.1a46.4,46.4,0,0,1,7.6-1.3c2.6-.2,5.6-.4,9-.4a75.1,75.1,0,0,0,7.7-.3Q429.5,128.6,450.7,175.1Z" transform="translate(-18.6 -35.5)"/><path d="M515.5,273.5c-.6,1.5-1.4,3.1-2.2,4.9l-2.8,6c-1,2.1-1.7,3.8-2.2,4.9s-2.9,6.3-5.2,11.6-3.9,9-5.1,11.6c-5.8,13.3-10.3,23.1-13.5,29.6l-13.2,27.1c-.7,1.6-1.8,4-3.4,7.1l-4.1,8.5c-1.2,2.5-2.4,4.8-3.5,6.9-3.5,6.9-7.1,12.3-10.8,16.1s-7.6,7.1-11.4,8.8c-6.9,2.7-12.3,3.2-16.2,1.4a12.8,12.8,0,0,0-2.6-.7,5.8,5.8,0,0,1-2.6-1,26.9,26.9,0,0,1-5.9-5.7,7.8,7.8,0,0,1-1.1-3c-.3-1.5-.1-2.5.5-2.9a24.6,24.6,0,0,0,13.2-2.3,41.1,41.1,0,0,0,11.6-9.5,113.1,113.1,0,0,0,10.1-15.5c.9-1.7,4.7-9.7,11.3-24,9.3-20.1,15.1-33,17.5-38.9-.2-.1,1.3-3.7,4.7-10.7l5.1-10.5q5.3-11.7,16.2-33.6a12.7,12.7,0,0,0,.7-2.1,3.9,3.9,0,0,1,.7-1.8q5.6.9,18.3,7.5A62.2,62.2,0,0,1,515.5,273.5Z" transform="translate(-18.6 -35.5)"/></g></g></svg>
