<svg id="LANDING" xmlns="http://www.w3.org/2000/svg" width="191" height="197" viewBox="0 0 191 197">
  <g id="Desktop-Landing_01" transform="translate(0 0)">
    <g id="ICONS" transform="translate(0 0)">
      <g id="Group-12">
        <ellipse id="Oval" cx="95.5" cy="98.5" rx="95.5" ry="98.5" transform="translate(0 0)" fill="#425a53" opacity="0.65"/>
        <path id="Fill-1" d="M41.267,68.772c-4.14,0-7.809-2.477-8.924-6.025-1.378-4.374,1.511-8.927,6.431-10.149,8.887-2.207,18.474-8.01,18.474-13.538,0-4.543,4.16-8.239,9.269-8.239s9.272,3.7,9.272,8.239a21.907,21.907,0,0,1-5.339,13.949,3.468,3.468,0,0,1-4.469.645,2.648,2.648,0,0,1-.726-3.971A16.741,16.741,0,0,0,69.388,39.06a2.886,2.886,0,0,0-5.734,0C63.654,47.77,52,55.221,40.5,58.078a2.53,2.53,0,0,0-1.993,3.14,2.968,2.968,0,0,0,3.533,1.769,54.258,54.258,0,0,0,9.315-3.24,3.4,3.4,0,0,1,4.307,1.237,2.7,2.7,0,0,1-1.4,3.83,61.618,61.618,0,0,1-10.5,3.654,10.446,10.446,0,0,1-2.5.3" transform="translate(58.939 57.052)" fill="#fefefe" fill-rule="evenodd"/>
        <path id="Fill-3" d="M54.418,67.853H43.1A2.98,2.98,0,0,1,40,65.011V35.663a3.109,3.109,0,0,1,6.2,0V62.168h8.223a2.853,2.853,0,1,1,0,5.684" transform="translate(74.13 60.89)" fill="#fefefe" fill-rule="evenodd"/>
        <path id="Fill-5" d="M35.9,52.5a91.89,91.89,0,0,1-16.4-1.51,3.145,3.145,0,0,1-2.448-3.646,3.029,3.029,0,0,1,3.466-2.578c20.618,3.73,35.143-.716,41.966-3.7A2.952,2.952,0,0,1,66.4,42.768a3.215,3.215,0,0,1-1.621,4.124A72.327,72.327,0,0,1,35.9,52.5" transform="translate(31.259 76.245)" fill="#fefefe" fill-rule="evenodd"/>
        <g id="Group-9" transform="translate(39.928 116.074)">
          <path id="Fill-7" d="M3.3,13.329A3.3,3.3,0,0,1,2,7L16.241.925a3.3,3.3,0,0,1,2.587,6.064L4.59,13.064a3.264,3.264,0,0,1-1.29.266" transform="translate(0 -0.66)" fill="#fefefe" fill-rule="evenodd"/>
        </g>
        <path id="Stroke-10" d="M48.443,36.706A8.443,8.443,0,1,0,40,28.263,8.443,8.443,0,0,0,48.443,36.706Z" transform="translate(84.041 45.177)" fill="none" stroke="#fefefe" stroke-width="4" fill-rule="evenodd"/>
      </g>
    </g>
  </g>
</svg>
