<svg xmlns="http://www.w3.org/2000/svg" width="192" height="192" viewBox="0 0 192 192">
  <g id="LANDING" transform="translate(-0.001)">
    <g id="Desktop-Landing_01" transform="translate(0 0)">
      <g id="ICONS" transform="translate(0 0)">
        <g id="Group-6" transform="translate(0 0)">
          <circle id="Oval" cx="96" cy="96" r="96" transform="translate(0 0)" fill="#425a53" opacity="0.65"/>
          <g id="Group-3" transform="translate(50.078 53.943)">
            <path id="Fill-1" d="M48.828,5.731V5.718q-18.3,0-36.614.005c-4.977.01-6.878,1.825-6.886,6.631q-.039,28.086,0,56.166.008,6.46,6.548,6.458,36.756.027,73.514.005c4.485,0,6.52-1.969,6.53-6.418q.058-27.941.008-55.877c-.01-5.447-1.7-6.953-7.347-6.955q-17.875-.015-35.751,0ZM0,9.272C2.912,2.116,5.282.512,13.2.507Q49.213.484,85.225.5c7.844,0,12.082,4.185,12.092,11.9.018,18.047-.134,36.094.1,54.136.088,6.616-2.038,11.355-8.576,13.692H8.651A12.9,12.9,0,0,1,0,71.711Z" transform="translate(-0.001 -0.492)" fill="#fefefe" fill-rule="evenodd"/>
          </g>
          <path id="Fill-4" d="M52.066,41.646,34.5,33.792v15.69l17.567-7.836m-23.053.026c0-3.336-.031-6.67.008-10a3.912,3.912,0,0,1,5.63-3.637c7.573,3.39,15.114,6.859,22.728,10.149a3.4,3.4,0,0,1,2.387,3.607c.036,1.912-.812,2.637-2.372,3.318-7.509,3.29-14.968,6.7-22.454,10.026-3.145,1.4-5.9-.36-5.919-3.745-.018-3.237-.005-6.478-.008-9.715" transform="translate(54.602 50.071)" fill="#fefefe" fill-rule="evenodd"/>
        </g>
      </g>
    </g>
  </g>
</svg>
